<svg width="28" height="28" viewBox="0 0 28 28" fill="none" xmlns="http://www.w3.org/2000/svg">
<path fill-rule="evenodd" clip-rule="evenodd" d="M4 0C2.93913 0 1.92172 0.421427 1.17157 1.17157C0.421427 1.92172 0 2.93913 0 4V24C0 25.0609 0.421427 26.0783 1.17157 26.8284C1.92172 27.5786 2.93913 28 4 28H24C25.0609 28 26.0783 27.5786 26.8284 26.8284C27.5786 26.0783 28 25.0609 28 24V4C28 2.93913 27.5786 1.92172 26.8284 1.17157C26.0783 0.421427 25.0609 0 24 0H4ZM6.204 8.594C6.83787 8.594 7.44577 8.3422 7.89398 7.89398C8.3422 7.44577 8.594 6.83787 8.594 6.204C8.594 5.57013 8.3422 4.96223 7.89398 4.51401C7.44577 4.0658 6.83787 3.814 6.204 3.814C5.57013 3.814 4.96223 4.0658 4.51401 4.51401C4.0658 4.96223 3.814 5.57013 3.814 6.204C3.814 6.83787 4.0658 7.44577 4.51401 7.89398C4.96223 8.3422 5.57013 8.594 6.204 8.594ZM8.204 23.626V10.468H4.204V23.626H8.204ZM10.86 10.468H14.86V12.23C15.45 11.306 16.746 10.062 19.156 10.062C22.032 10.062 23.594 11.968 23.594 15.594C23.594 15.768 23.61 16.562 23.61 16.562V23.624H19.61V16.564C19.61 15.594 19.406 13.688 17.25 13.688C15.092 13.688 14.91 16.084 14.86 17.652V23.624H10.86V10.468Z" fill="white"/>
</svg>
