<svg width="16" height="18" viewBox="0 0 16 18" fill="none" xmlns="http://www.w3.org/2000/svg">
<path d="M15.6308 14.4999C15.5777 14.39 15.4922 14.2991 15.3857 14.2395C15.2792 14.1799 15.157 14.1544 15.0356 14.1665H14.5296C13.0485 14.1262 11.6248 13.5846 10.4913 12.6304C9.35778 11.6762 8.58143 10.3657 8.28911 8.91313C7.9968 7.46055 8.20582 5.95178 8.882 4.63338C9.55819 3.31497 10.6616 2.2649 12.0118 1.65475C12.1272 1.60632 12.2244 1.52272 12.2896 1.41586C12.3548 1.309 12.3846 1.18431 12.3749 1.05952C12.3708 0.93955 12.3305 0.823623 12.2593 0.726957C12.1882 0.630291 12.0894 0.557402 11.9761 0.517859C11.0216 0.174 10.0145 -0.00122839 8.99992 6.48151e-06C6.61299 6.48151e-06 4.32383 0.948209 2.63601 2.63602C0.948203 4.32383 0 6.613 0 8.99992C0 11.3869 0.948203 13.676 2.63601 15.3638C4.32383 17.0516 6.61299 17.9998 8.99992 17.9998C10.2309 18.0072 11.4496 17.7562 12.5775 17.2631C13.7053 16.7699 14.7171 16.0455 15.5475 15.1368C15.6208 15.0497 15.6677 14.9434 15.6824 14.8305C15.6972 14.7176 15.6793 14.6029 15.6308 14.4999ZM9.01777 16.8391C6.94658 16.8391 4.96021 16.0164 3.49566 14.5518C2.0311 13.0872 1.20832 11.1009 1.20832 9.02968C1.20832 6.95849 2.0311 4.97213 3.49566 3.50757C4.96021 2.04301 6.94658 1.22023 9.01777 1.22023C9.41658 1.21815 9.81484 1.25001 10.2082 1.31547C8.9332 2.20879 7.95727 3.46594 7.40798 4.92266C6.85868 6.37937 6.76156 7.9679 7.12931 9.48069C7.49706 10.9935 8.31257 12.3601 9.46929 13.4021C10.626 14.4441 12.0701 15.113 13.613 15.3213C12.2879 16.3151 10.6741 16.8482 9.01777 16.8391Z" fill="#7A7A7A"/>
</svg>
