<svg width="18" height="24" viewBox="0 0 18 24" fill="none" xmlns="http://www.w3.org/2000/svg">
<g clip-path="url(#clip0_34_59)">
<path d="M9.60871 15.07L7.71235 12.56L7.73475 12.53C8.9996 10.6471 9.9446 8.41925 10.5046 6H12.6922V4H7.46597V2H5.97277V4H0.746582V6H9.08609C8.58587 7.92 7.79447 9.75 6.71937 11.35C6.02503 10.32 5.45015 9.19 4.99473 8H3.50153C4.04655 9.63 4.79315 11.17 5.7264 12.56L1.92621 17.58L2.98638 19L6.71937 14L9.04129 17.11L9.60871 15.07ZM13.8121 10H12.3189L8.95917 22H10.4524L11.2886 19H14.8349L15.6786 22H17.1718L13.8121 10ZM11.856 17L13.0655 12.67L14.275 17H11.856Z" fill="#E82E2C"/>
</g>
<defs>
<clipPath id="clip0_34_59">
<rect width="17.9184" height="24" fill="white"/>
</clipPath>
</defs>
</svg>
