<svg width="32" height="32" viewBox="0 0 32 32" fill="none" xmlns="http://www.w3.org/2000/svg">
<path d="M0 5.77778V26.2222C0 27.7546 0.608728 29.2242 1.69227 30.3077C2.77582 31.3913 4.24542 32 5.77778 32H26.2222C27.7546 32 29.2242 31.3913 30.3077 30.3077C31.3913 29.2242 32 27.7546 32 26.2222V5.77778C32 4.24542 31.3913 2.77582 30.3077 1.69227C29.2242 0.608728 27.7546 0 26.2222 0H5.77778C4.24542 0 2.77582 0.608728 1.69227 1.69227C0.608728 2.77582 0 4.24542 0 5.77778ZM16 11.5556C16.3536 11.5556 16.6928 11.696 16.9428 11.9461C17.1929 12.1961 17.3333 12.5353 17.3333 12.8889V23.5556C17.3333 24.3807 17.0056 25.172 16.4221 25.7554C15.8387 26.3389 15.0473 26.6667 14.2222 26.6667H12C11.6464 26.6667 11.3072 26.5262 11.0572 26.2761C10.8071 26.0261 10.6667 25.687 10.6667 25.3333C10.6667 24.9797 10.8071 24.6406 11.0572 24.3905C11.3072 24.1405 11.6464 24 12 24H14.2222C14.3401 24 14.4531 23.9532 14.5365 23.8698C14.6198 23.7865 14.6667 23.6734 14.6667 23.5556V12.8889C14.6667 12.5353 14.8071 12.1961 15.0572 11.9461C15.3072 11.696 15.6464 11.5556 16 11.5556ZM19.5556 14.6667C19.5556 12.9493 20.9493 11.5556 22.6667 11.5556H25.3333C25.687 11.5556 26.0261 11.696 26.2761 11.9461C26.5262 12.1961 26.6667 12.5353 26.6667 12.8889C26.6667 13.2425 26.5262 13.5816 26.2761 13.8317C26.0261 14.0817 25.687 14.2222 25.3333 14.2222H22.6667C22.5488 14.2222 22.4357 14.269 22.3524 14.3524C22.269 14.4357 22.2222 14.5488 22.2222 14.6667V17.3333C22.2222 17.5787 22.4213 17.7778 22.6667 17.7778H23.5556C25.2729 17.7778 26.6667 19.1716 26.6667 20.8889V23.5556C26.6667 24.3807 26.3389 25.172 25.7554 25.7554C25.172 26.3389 24.3807 26.6667 23.5556 26.6667H20.8889C20.5353 26.6667 20.1961 26.5262 19.9461 26.2761C19.696 26.0261 19.5556 25.687 19.5556 25.3333C19.5556 24.9797 19.696 24.6406 19.9461 24.3905C20.1961 24.1405 20.5353 24 20.8889 24H23.5556C23.6734 24 23.7865 23.9532 23.8698 23.8698C23.9532 23.7865 24 23.6734 24 23.5556V20.8889C24 20.771 23.9532 20.658 23.8698 20.5746C23.7865 20.4913 23.6734 20.4444 23.5556 20.4444H22.6667C21.8415 20.4444 21.0502 20.1167 20.4668 19.5332C19.8833 18.9498 19.5556 18.1585 19.5556 17.3333V14.6667Z" fill="#7A7A7A"/>
</svg>
