<svg width="54" height="54" viewBox="0 0 54 54" fill="none" xmlns="http://www.w3.org/2000/svg">
<path d="M0 9.75V44.25C0 46.8359 1.02723 49.3158 2.85571 51.1443C4.68419 52.9728 7.16414 54 9.75 54H44.25C46.8359 54 49.3158 52.9728 51.1443 51.1443C52.9728 49.3158 54 46.8359 54 44.25V9.75C54 7.16414 52.9728 4.68419 51.1443 2.85571C49.3158 1.02723 46.8359 0 44.25 0H9.75C7.16414 0 4.68419 1.02723 2.85571 2.85571C1.02723 4.68419 0 7.16414 0 9.75ZM27 19.5C27.5967 19.5 28.169 19.7371 28.591 20.159C29.0129 20.581 29.25 21.1533 29.25 21.75V39.75C29.25 41.1424 28.6969 42.4777 27.7123 43.4623C26.7277 44.4469 25.3924 45 24 45H20.25C19.6533 45 19.081 44.7629 18.659 44.341C18.2371 43.919 18 43.3467 18 42.75C18 42.1533 18.2371 41.581 18.659 41.159C19.081 40.7371 19.6533 40.5 20.25 40.5H24C24.1989 40.5 24.3897 40.421 24.5303 40.2803C24.671 40.1397 24.75 39.9489 24.75 39.75V21.75C24.75 21.1533 24.9871 20.581 25.409 20.159C25.831 19.7371 26.4033 19.5 27 19.5ZM33 24.75C33 21.852 35.352 19.5 38.25 19.5H42.75C43.3467 19.5 43.919 19.7371 44.341 20.159C44.7629 20.581 45 21.1533 45 21.75C45 22.3467 44.7629 22.919 44.341 23.341C43.919 23.7629 43.3467 24 42.75 24H38.25C38.0511 24 37.8603 24.079 37.7197 24.2197C37.579 24.3603 37.5 24.5511 37.5 24.75V29.25C37.5 29.664 37.836 30 38.25 30H39.75C42.648 30 45 32.352 45 35.25V39.75C45 41.1424 44.4469 42.4777 43.4623 43.4623C42.4777 44.4469 41.1424 45 39.75 45H35.25C34.6533 45 34.081 44.7629 33.659 44.341C33.2371 43.919 33 43.3467 33 42.75C33 42.1533 33.2371 41.581 33.659 41.159C34.081 40.7371 34.6533 40.5 35.25 40.5H39.75C39.9489 40.5 40.1397 40.421 40.2803 40.2803C40.421 40.1397 40.5 39.9489 40.5 39.75V35.25C40.5 35.0511 40.421 34.8603 40.2803 34.7197C40.1397 34.579 39.9489 34.5 39.75 34.5H38.25C36.8576 34.5 35.5223 33.9469 34.5377 32.9623C33.5531 31.9777 33 30.6424 33 29.25V24.75Z" fill="#7A7A7A"/>
</svg>
