<svg width="32" height="32" viewBox="0 0 32 32" fill="none" xmlns="http://www.w3.org/2000/svg">
<path d="M31.9835 7.23562C32 7.26763 32 7.31566 32 7.36368V14.2311C32 14.3912 31.9011 14.5833 31.7528 14.6633L25.8043 17.993V24.5723C25.8043 24.7484 25.7219 24.9085 25.5572 25.0045L13.1658 31.936C13.1329 31.952 13.0999 32 13.0669 32H12.7044C12.7044 32 12.7044 31.952 12.6385 31.936L0.247175 25.0045C0.17124 24.9591 0.10861 24.8955 0.0653191 24.8198C0.022028 24.7441 -0.000465056 24.6589 7.28863e-06 24.5723V3.98599C7.28863e-06 3.90595 7.27256e-06 3.85793 0.0164851 3.82591C0.0164851 3.80991 0.032963 3.7939 0.032963 3.77789C0.032963 3.74587 0.0494408 3.72987 0.0659186 3.69785C0.0659186 3.68184 0.0823965 3.66583 0.0988743 3.64982L0.148308 3.6018L0.197742 3.55378C0.21422 3.53777 0.230697 3.52176 0.247175 3.52176L6.44285 0.048024C6.60763 -0.016008 6.80536 -0.016008 6.93718 0.048024L13.1658 3.52176C13.1823 3.53777 13.1988 3.53777 13.2152 3.55378L13.2647 3.6018L13.3141 3.64982C13.3306 3.66583 13.3471 3.68184 13.3471 3.69785C13.3635 3.72987 13.38 3.74587 13.38 3.77789C13.38 3.7939 13.3965 3.80991 13.3965 3.82591C13.413 3.87394 13.413 3.90595 13.413 3.98599V16.7924L18.587 13.943V7.36368C18.587 7.31566 18.587 7.26763 18.6035 7.23562L18.62 7.18759C18.62 7.18759 18.6365 7.13957 18.6529 7.10755C18.6529 7.09155 18.6694 7.07554 18.6859 7.05953L18.7353 7.01151L18.7848 6.96348C18.8012 6.94747 18.8177 6.93147 18.8342 6.93147L25.0628 3.45773C25.1946 3.36168 25.3924 3.36168 25.5572 3.45773L31.7528 6.93147C31.7693 6.93147 31.7858 6.94747 31.8023 6.96348L31.8517 7.01151L31.9011 7.05953C31.9176 7.07554 31.9176 7.09155 31.9341 7.10755C31.9506 7.13957 31.9506 7.18759 31.967 7.18759C31.9835 7.18759 31.9835 7.18759 31.9835 7.23562ZM30.9784 13.943V8.22811L25.8043 11.1096V16.7924L30.9784 13.943ZM24.7827 24.2841V18.5533L13.413 24.8604V30.6393L24.7827 24.2841ZM1.02163 4.78639V24.2841L12.3914 30.6393V24.8604L6.45933 21.5948H6.44285C6.42637 21.5948 6.40989 21.5948 6.39342 21.5468C6.37694 21.5468 6.36046 21.5308 6.34398 21.5148L6.29455 21.4667C6.27807 21.4507 6.27807 21.4347 6.26159 21.4187C6.24511 21.3867 6.24511 21.3707 6.22864 21.3547C6.22864 21.3227 6.21216 21.3067 6.21216 21.2906C6.19568 21.2746 6.19568 21.2426 6.19568 21.2266V7.69985L1.02163 4.78639ZM6.70649 1.07254L1.54893 3.98599L6.70649 6.83542L11.8805 3.98599L6.70649 1.07254ZM12.3914 17.4007V4.78639L7.21731 7.69985V20.2981L12.3914 17.4007ZM25.2935 4.46623L20.1195 7.36368L25.2935 10.2451L30.4511 7.36368L25.2935 4.46623ZM24.7827 11.1096L19.6087 8.22811V13.943L24.7827 16.7924V11.1096ZM12.9022 23.996L24.2389 17.6888L19.0978 14.8074L7.76108 21.1626L12.9022 23.996Z" fill="#7A7A7A"/>
</svg>
