<svg width="55" height="55" viewBox="0 0 55 55" fill="none" xmlns="http://www.w3.org/2000/svg">
<path d="M54.392 12.434C54.42 12.489 54.42 12.5715 54.42 12.654V24.4553C54.42 24.7304 54.2519 25.0605 53.9997 25.198L43.8835 30.9198V42.2259C43.8835 42.5285 43.7434 42.8036 43.4631 42.9687L22.3901 54.88C22.3341 54.9075 22.278 54.99 22.222 54.99H21.6055C21.6055 54.99 21.6055 54.9075 21.4934 54.88L0.420352 42.9687C0.291216 42.8907 0.184705 42.7814 0.111083 42.6514C0.0374614 42.5213 -0.000790887 42.3748 1.23952e-05 42.2259V6.84968C1.23952e-05 6.71214 1.23679e-05 6.62961 0.028035 6.57459C0.028035 6.54708 0.0560576 6.51957 0.0560576 6.49207C0.0560576 6.43705 0.0840802 6.40954 0.112103 6.35452C0.112103 6.32701 0.140125 6.2995 0.168148 6.272L0.252217 6.18947L0.336285 6.10694C0.364307 6.07943 0.39233 6.05193 0.420352 6.05193L10.9569 0.0825263C11.2371 -0.0275088 11.5734 -0.0275088 11.7975 0.0825263L22.3901 6.05193C22.4181 6.07943 22.4462 6.07943 22.4742 6.10694L22.5582 6.18947L22.6423 6.272C22.6703 6.2995 22.6984 6.32701 22.6984 6.35452C22.7264 6.40954 22.7544 6.43705 22.7544 6.49207C22.7544 6.51957 22.7824 6.54708 22.7824 6.57459C22.8105 6.65712 22.8105 6.71214 22.8105 6.84968V28.8567L31.6096 23.9601V12.654C31.6096 12.5715 31.6096 12.489 31.6376 12.434L31.6656 12.3514C31.6656 12.3514 31.6936 12.2689 31.7217 12.2139C31.7217 12.1864 31.7497 12.1589 31.7777 12.1314L31.8618 12.0488L31.9458 11.9663C31.9739 11.9388 32.0019 11.9113 32.0299 11.9113L42.6225 5.94189C42.8466 5.77684 43.1829 5.77684 43.4631 5.94189L53.9997 11.9113C54.0277 11.9113 54.0557 11.9388 54.0837 11.9663L54.1678 12.0488L54.2519 12.1314C54.2799 12.1589 54.2799 12.1864 54.3079 12.2139C54.3359 12.2689 54.3359 12.3514 54.364 12.3514C54.392 12.3514 54.392 12.3514 54.392 12.434ZM52.6826 23.9601V14.1395L43.8835 19.0911V28.8567L52.6826 23.9601ZM42.1461 41.7308V31.8826L22.8105 42.7211V52.6518L42.1461 41.7308ZM1.73742 8.22512V41.7308L21.073 52.6518V42.7211L10.9849 37.1093H10.9569C10.9288 37.1093 10.9008 37.1093 10.8728 37.0268C10.8448 37.0268 10.8168 36.9993 10.7887 36.9718L10.7047 36.8892C10.6766 36.8617 10.6766 36.8342 10.6486 36.8067C10.6206 36.7517 10.6206 36.7242 10.5926 36.6967C10.5926 36.6417 10.5646 36.6142 10.5646 36.5866C10.5365 36.5591 10.5365 36.5041 10.5365 36.4766V13.2317L1.73742 8.22512ZM11.4052 1.84309L2.63414 6.84968L11.4052 11.7462L20.2043 6.84968L11.4052 1.84309ZM21.073 29.902V8.22512L12.2739 13.2317V34.8811L21.073 29.902ZM43.0148 7.67494L34.2157 12.654L43.0148 17.6056L51.7859 12.654L43.0148 7.67494ZM42.1461 19.0911L33.347 14.1395V23.9601L42.1461 28.8567V19.0911ZM21.9417 41.2356L41.2213 30.3972L32.4783 25.4456L13.1987 36.3666L21.9417 41.2356Z" fill="#7A7A7A"/>
</svg>
