<svg width="18" height="18" viewBox="0 0 18 18" fill="none" xmlns="http://www.w3.org/2000/svg">
<path d="M5.25 12.75C4.2125 12.75 3.328 12.3843 2.5965 11.6528C1.865 10.9213 1.4995 10.037 1.5 9C1.5 7.9625 1.86575 7.078 2.59725 6.3465C3.32875 5.615 4.213 5.2495 5.25 5.25H7.5C7.7125 5.25 7.89075 5.322 8.03475 5.466C8.17875 5.61 8.2505 5.788 8.25 6C8.25 6.2125 8.178 6.39075 8.034 6.53475C7.89 6.67875 7.712 6.7505 7.5 6.75H5.25C4.625 6.75 4.09375 6.96875 3.65625 7.40625C3.21875 7.84375 3 8.375 3 9C3 9.625 3.21875 10.1562 3.65625 10.5938C4.09375 11.0312 4.625 11.25 5.25 11.25H7.5C7.7125 11.25 7.89075 11.322 8.03475 11.466C8.17875 11.61 8.2505 11.788 8.25 12C8.25 12.2125 8.178 12.3907 8.034 12.5347C7.89 12.6788 7.712 12.7505 7.5 12.75H5.25ZM6.75 9.75C6.5375 9.75 6.35925 9.678 6.21525 9.534C6.07125 9.39 5.9995 9.212 6 9C6 8.7875 6.072 8.60925 6.216 8.46525C6.36 8.32125 6.538 8.2495 6.75 8.25H11.25C11.4625 8.25 11.6408 8.322 11.7848 8.466C11.9288 8.61 12.0005 8.788 12 9C12 9.2125 11.928 9.39075 11.784 9.53475C11.64 9.67875 11.462 9.7505 11.25 9.75H6.75ZM10.5 12.75C10.2875 12.75 10.1093 12.678 9.96525 12.534C9.82125 12.39 9.7495 12.212 9.75 12C9.75 11.7875 9.822 11.6093 9.966 11.4653C10.11 11.3213 10.288 11.2495 10.5 11.25H12.75C13.375 11.25 13.9062 11.0312 14.3438 10.5938C14.7812 10.1562 15 9.625 15 9C15 8.375 14.7812 7.84375 14.3438 7.40625C13.9062 6.96875 13.375 6.75 12.75 6.75H10.5C10.2875 6.75 10.1093 6.678 9.96525 6.534C9.82125 6.39 9.7495 6.212 9.75 6C9.75 5.7875 9.822 5.60925 9.966 5.46525C10.11 5.32125 10.288 5.2495 10.5 5.25H12.75C13.7875 5.25 14.672 5.61575 15.4035 6.34725C16.135 7.07875 16.5005 7.963 16.5 9C16.5 10.0375 16.1343 10.922 15.4028 11.6535C14.6713 12.385 13.787 12.7505 12.75 12.75H10.5Z" fill="#7A7A7A"/>
</svg>
