<svg width="18" height="24" viewBox="0 0 18 24" fill="none" xmlns="http://www.w3.org/2000/svg">
<g clip-path="url(#clip0_34_55)">
<path d="M10.4764 9.9V8.2C10.888 7.96667 11.309 7.79167 11.7396 7.675C12.1701 7.55833 12.622 7.5 13.0955 7.5C13.4197 7.5 13.7378 7.53333 14.0496 7.6C14.3613 7.66667 14.6669 7.75 14.9662 7.85V9.45C14.6669 9.3 14.3643 9.18733 14.0585 9.112C13.7527 9.03667 13.4317 8.99933 13.0955 9C12.6215 9 12.1663 9.07933 11.7298 9.238C11.2933 9.39667 10.8755 9.61733 10.4764 9.9ZM10.4764 15.4V13.7C10.888 13.4667 11.309 13.2917 11.7396 13.175C12.1701 13.0583 12.622 13 13.0955 13C13.4197 13 13.7378 13.0333 14.0496 13.1C14.3613 13.1667 14.6669 13.25 14.9662 13.35V14.95C14.6669 14.8 14.3643 14.6873 14.0585 14.612C13.7527 14.5367 13.4317 14.4993 13.0955 14.5C12.6215 14.5 12.1663 14.575 11.7298 14.725C11.2933 14.875 10.8755 15.1 10.4764 15.4ZM10.4764 12.65V10.95C10.888 10.7167 11.309 10.5417 11.7396 10.425C12.1701 10.3083 12.622 10.25 13.0955 10.25C13.4197 10.25 13.7378 10.2833 14.0496 10.35C14.3613 10.4167 14.6669 10.5 14.9662 10.6V12.2C14.6669 12.05 14.3643 11.9373 14.0585 11.862C13.7527 11.7867 13.4317 11.7493 13.0955 11.75C12.6215 11.75 12.1663 11.8293 11.7298 11.988C11.2933 12.1467 10.8755 12.3673 10.4764 12.65ZM4.86418 16C5.45035 16 6.02105 16.0877 6.57629 16.263C7.13153 16.4383 7.68327 16.7007 8.23153 17.05V7.2C7.72019 6.8 7.17767 6.5 6.60398 6.3C6.03028 6.1 5.45035 6 4.86418 6C4.4152 6 3.96921 6.05833 3.52622 6.175C3.08323 6.29167 2.6562 6.46667 2.24513 6.7V16.6C2.68164 16.4 3.11516 16.25 3.54568 16.15C3.9762 16.05 4.4157 16 4.86418 16ZM9.72813 17.05C10.2769 16.7 10.8286 16.4373 11.3834 16.262C11.9381 16.0867 12.5088 15.9993 13.0955 16C13.5445 16 13.9842 16.05 14.4147 16.15C14.8452 16.25 15.2785 16.4 15.7145 16.6V6.7C15.303 6.46667 14.8757 6.29167 14.4327 6.175C13.9897 6.05833 13.544 6 13.0955 6C12.5093 6 11.9294 6.1 11.3557 6.3C10.782 6.5 10.2395 6.8 9.72813 7.2V17.05ZM8.97983 20C8.38119 19.3667 7.73266 18.875 7.03425 18.525C6.33584 18.175 5.61248 18 4.86418 18C4.34037 18 3.82579 18.0917 3.32044 18.275C2.81509 18.4583 2.33194 18.7167 1.87098 19.05C1.60908 19.2333 1.35665 19.225 1.11371 19.025C0.870757 18.825 0.749034 18.5333 0.748535 18.15V6.1C0.748535 5.91667 0.782957 5.74167 0.8518 5.575C0.920644 5.40833 1.02341 5.28333 1.1601 5.2C1.7338 4.8 2.33244 4.5 2.95602 4.3C3.5796 4.1 4.21565 4 4.86418 4C5.58754 4 6.29543 4.125 6.98785 4.375C7.68028 4.625 8.34427 5 8.97983 5.5C9.61588 5 10.2801 4.625 10.9725 4.375C11.665 4.125 12.3726 4 13.0955 4C13.744 4 14.3801 4.1 15.0036 4.3C15.6272 4.5 16.2259 4.8 16.7996 5.2C16.9367 5.28333 17.0398 5.40833 17.1086 5.575C17.1774 5.74167 17.2116 5.91667 17.2111 6.1V18.15C17.2111 18.5333 17.0896 18.825 16.8467 19.025C16.6037 19.225 16.3511 19.2333 16.0887 19.05C15.6272 18.7167 15.1441 18.4583 14.6392 18.275C14.1344 18.0917 13.6198 18 13.0955 18C12.3472 18 11.6238 18.175 10.9254 18.525C10.227 18.875 9.57847 19.3667 8.97983 20Z" fill="#E82E2C"/>
</g>
<defs>
<clipPath id="clip0_34_55">
<rect width="17.9592" height="24" fill="white"/>
</clipPath>
</defs>
</svg>
