<svg width="54" height="48" viewBox="0 0 54 48" fill="none" xmlns="http://www.w3.org/2000/svg">
<path d="M40.4091 9.36365H42.0909L46.0455 19.0227H46.1818L50.1364 9.36365H51.8182V21H50.5V12.1591H50.3864L46.75 21H45.4773L41.8409 12.1591H41.7273V21H40.4091V9.36365Z" fill="#F9F9F9"/>
<path d="M41.5852 41V27.9091H46.1619C47.0739 27.9091 47.826 28.0668 48.4183 28.3821C49.0107 28.6932 49.4517 29.1129 49.7415 29.6413C50.0313 30.1655 50.1761 30.7472 50.1761 31.3864C50.1761 31.9489 50.076 32.4134 49.8757 32.7798C49.6797 33.1463 49.4197 33.4361 49.0959 33.6491C48.7763 33.8622 48.429 34.0199 48.054 34.1222V34.25C48.4545 34.2756 48.8572 34.4162 49.2621 34.6719C49.6669 34.9276 50.0057 35.294 50.2784 35.7713C50.5511 36.2486 50.6875 36.8324 50.6875 37.5227C50.6875 38.179 50.5384 38.7692 50.2401 39.2933C49.9418 39.8175 49.4709 40.233 48.8274 40.5398C48.1839 40.8466 47.3466 41 46.3153 41H41.5852ZM43.1705 39.5938H46.3153C47.3509 39.5938 48.0859 39.3935 48.5206 38.9929C48.9595 38.5881 49.179 38.098 49.179 37.5227C49.179 37.0795 49.0661 36.6705 48.8402 36.2955C48.6143 35.9162 48.2926 35.6136 47.875 35.3878C47.4574 35.1577 46.9631 35.0426 46.392 35.0426H43.1705V39.5938ZM43.1705 33.6619H46.1108C46.5881 33.6619 47.0185 33.5682 47.402 33.3807C47.7898 33.1932 48.0966 32.929 48.3224 32.5881C48.5526 32.2472 48.6676 31.8466 48.6676 31.3864C48.6676 30.8111 48.4673 30.3232 48.0668 29.9226C47.6662 29.5178 47.0313 29.3153 46.1619 29.3153H43.1705V33.6619Z" fill="#FF0300"/>
<path d="M11 34.972V40.9C11.0021 41.5889 11.2767 42.249 11.7639 42.7361C12.251 43.2233 12.9111 43.4979 13.6 43.5H34.4C35.0889 43.4979 35.749 43.2233 36.2361 42.7361C36.7233 42.249 36.9979 41.5889 37 40.9V7.1C36.9979 6.41109 36.7233 5.75099 36.2361 5.26385C35.749 4.77672 35.0889 4.50211 34.4 4.5H13.6C12.9111 4.50211 12.251 4.77672 11.7639 5.26385C11.2767 5.75099 11.0021 6.41109 11 7.1V13.028" stroke="#FF0300" stroke-linecap="round" stroke-linejoin="round"/>
<path d="M12.926 31.947L20.873 24L12.926 16.053M20.873 31.947H29.73" stroke="#FF0300" stroke-linecap="round" stroke-linejoin="round"/>
</svg>
