<svg width="135" height="48" viewBox="0 0 135 48" fill="none" xmlns="http://www.w3.org/2000/svg">
<path d="M46.4091 10.3636H48.0909L52.0455 20.0227H52.1818L56.1364 10.3636H57.8182V22H56.5V13.1591H56.3864L52.75 22H51.4773L47.8409 13.1591H47.7273V22H46.4091V10.3636ZM61.1207 22H59.6435L63.9162 10.3636H65.3707L69.6435 22H68.1662L64.6889 12.2045H64.598L61.1207 22ZM61.6662 17.4545H67.6207V18.7045H61.6662V17.4545ZM71.456 22V10.3636H75.3878C76.2969 10.3636 77.0431 10.5189 77.6264 10.8295C78.2098 11.1364 78.6416 11.5587 78.9219 12.0966C79.2022 12.6345 79.3423 13.2462 79.3423 13.9318C79.3423 14.6174 79.2022 15.2254 78.9219 15.7557C78.6416 16.286 78.2116 16.7027 77.6321 17.0057C77.0526 17.3049 76.312 17.4545 75.4105 17.4545H72.2287V16.1818H75.3651C75.9863 16.1818 76.4863 16.0909 76.8651 15.9091C77.2476 15.7273 77.5241 15.4697 77.6946 15.1364C77.8688 14.7992 77.956 14.3977 77.956 13.9318C77.956 13.4659 77.8688 13.0587 77.6946 12.7102C77.5204 12.3617 77.242 12.0928 76.8594 11.9034C76.4768 11.7102 75.9711 11.6136 75.3423 11.6136H72.8651V22H71.456ZM76.9332 16.7727L79.7969 22H78.1605L75.3423 16.7727H76.9332ZM91.054 14H89.6449C89.5616 13.5947 89.4157 13.2386 89.2074 12.9318C89.0028 12.625 88.7528 12.3674 88.4574 12.1591C88.1657 11.947 87.8419 11.7879 87.4858 11.6818C87.1297 11.5758 86.7585 11.5227 86.3722 11.5227C85.6676 11.5227 85.0294 11.7008 84.4574 12.0568C83.8892 12.4129 83.4366 12.9375 83.0994 13.6307C82.7661 14.3239 82.5994 15.1742 82.5994 16.1818C82.5994 17.1894 82.7661 18.0398 83.0994 18.733C83.4366 19.4261 83.8892 19.9508 84.4574 20.3068C85.0294 20.6629 85.6676 20.8409 86.3722 20.8409C86.7585 20.8409 87.1297 20.7879 87.4858 20.6818C87.8419 20.5758 88.1657 20.4186 88.4574 20.2102C88.7528 19.9981 89.0028 19.7386 89.2074 19.4318C89.4157 19.1212 89.5616 18.7652 89.6449 18.3636H91.054C90.9479 18.9583 90.7547 19.4905 90.4744 19.9602C90.1941 20.4299 89.8456 20.8295 89.429 21.1591C89.0123 21.4848 88.5445 21.733 88.0256 21.9034C87.5104 22.0739 86.9593 22.1591 86.3722 22.1591C85.3797 22.1591 84.4972 21.9167 83.7244 21.4318C82.9517 20.947 82.3438 20.2576 81.9006 19.3636C81.4574 18.4697 81.2358 17.4091 81.2358 16.1818C81.2358 14.9545 81.4574 13.8939 81.9006 13C82.3438 12.1061 82.9517 11.4167 83.7244 10.9318C84.4972 10.447 85.3797 10.2045 86.3722 10.2045C86.9593 10.2045 87.5104 10.2898 88.0256 10.4602C88.5445 10.6307 89.0123 10.8807 89.429 11.2102C89.8456 11.536 90.1941 11.9337 90.4744 12.4034C90.7547 12.8693 90.9479 13.4015 91.054 14ZM93.331 22V10.3636H100.354V11.6136H94.7401V15.5455H99.9901V16.7955H94.7401V20.75H100.445V22H93.331ZM102.893 22V10.3636H104.303V20.75H109.712V22H102.893ZM121.259 16.1818C121.259 17.4091 121.037 18.4697 120.594 19.3636C120.151 20.2576 119.543 20.947 118.77 21.4318C117.997 21.9167 117.115 22.1591 116.122 22.1591C115.13 22.1591 114.247 21.9167 113.474 21.4318C112.702 20.947 112.094 20.2576 111.651 19.3636C111.207 18.4697 110.986 17.4091 110.986 16.1818C110.986 14.9545 111.207 13.8939 111.651 13C112.094 12.1061 112.702 11.4167 113.474 10.9318C114.247 10.447 115.13 10.2045 116.122 10.2045C117.115 10.2045 117.997 10.447 118.77 10.9318C119.543 11.4167 120.151 12.1061 120.594 13C121.037 13.8939 121.259 14.9545 121.259 16.1818ZM119.895 16.1818C119.895 15.1742 119.726 14.3239 119.389 13.6307C119.056 12.9375 118.603 12.4129 118.031 12.0568C117.463 11.7008 116.827 11.5227 116.122 11.5227C115.418 11.5227 114.779 11.7008 114.207 12.0568C113.639 12.4129 113.187 12.9375 112.849 13.6307C112.516 14.3239 112.349 15.1742 112.349 16.1818C112.349 17.1894 112.516 18.0398 112.849 18.733C113.187 19.4261 113.639 19.9508 114.207 20.3068C114.779 20.6629 115.418 20.8409 116.122 20.8409C116.827 20.8409 117.463 20.6629 118.031 20.3068C118.603 19.9508 119.056 19.4261 119.389 18.733C119.726 18.0398 119.895 17.1894 119.895 16.1818Z" fill="#191C1F"/>
<path d="M57.0568 36V27.2727H60.108C60.7159 27.2727 61.2173 27.3778 61.6122 27.5881C62.0071 27.7955 62.3011 28.0753 62.4943 28.4276C62.6875 28.777 62.7841 29.1648 62.7841 29.5909C62.7841 29.9659 62.7173 30.2756 62.5838 30.5199C62.4531 30.7642 62.2798 30.9574 62.0639 31.0994C61.8509 31.2415 61.6193 31.3466 61.3693 31.4148V31.5C61.6364 31.517 61.9048 31.6108 62.1747 31.7812C62.4446 31.9517 62.6705 32.196 62.8523 32.5142C63.0341 32.8324 63.125 33.2216 63.125 33.6818C63.125 34.1193 63.0256 34.5128 62.8267 34.8622C62.6278 35.2116 62.3139 35.4886 61.8849 35.6932C61.456 35.8977 60.8977 36 60.2102 36H57.0568ZM58.1136 35.0625H60.2102C60.9006 35.0625 61.3906 34.929 61.6804 34.6619C61.973 34.392 62.1193 34.0653 62.1193 33.6818C62.1193 33.3864 62.044 33.1136 61.8935 32.8636C61.7429 32.6108 61.5284 32.4091 61.25 32.2585C60.9716 32.1051 60.642 32.0284 60.2614 32.0284H58.1136V35.0625ZM58.1136 31.108H60.0739C60.392 31.108 60.679 31.0455 60.9347 30.9205C61.1932 30.7955 61.3977 30.6193 61.5483 30.392C61.7017 30.1648 61.7784 29.8977 61.7784 29.5909C61.7784 29.2074 61.6449 28.8821 61.3778 28.6151C61.1108 28.3452 60.6875 28.2102 60.108 28.2102H58.1136V31.108ZM72.2251 31.6364C72.2251 32.5568 72.0589 33.3523 71.7266 34.0227C71.3942 34.6932 70.9382 35.2102 70.3587 35.5739C69.7791 35.9375 69.1172 36.1193 68.3729 36.1193C67.6286 36.1193 66.9666 35.9375 66.3871 35.5739C65.8075 35.2102 65.3516 34.6932 65.0192 34.0227C64.6868 33.3523 64.5206 32.5568 64.5206 31.6364C64.5206 30.7159 64.6868 29.9205 65.0192 29.25C65.3516 28.5795 65.8075 28.0625 66.3871 27.6989C66.9666 27.3352 67.6286 27.1534 68.3729 27.1534C69.1172 27.1534 69.7791 27.3352 70.3587 27.6989C70.9382 28.0625 71.3942 28.5795 71.7266 29.25C72.0589 29.9205 72.2251 30.7159 72.2251 31.6364ZM71.2024 31.6364C71.2024 30.8807 71.076 30.2429 70.8232 29.723C70.5732 29.2031 70.2337 28.8097 69.8047 28.5426C69.3786 28.2756 68.9013 28.142 68.3729 28.142C67.8445 28.142 67.3658 28.2756 66.9368 28.5426C66.5107 28.8097 66.1712 29.2031 65.9183 29.723C65.6683 30.2429 65.5433 30.8807 65.5433 31.6364C65.5433 32.392 65.6683 33.0298 65.9183 33.5497C66.1712 34.0696 66.5107 34.4631 66.9368 34.7301C67.3658 34.9972 67.8445 35.1307 68.3729 35.1307C68.9013 35.1307 69.3786 34.9972 69.8047 34.7301C70.2337 34.4631 70.5732 34.0696 70.8232 33.5497C71.076 33.0298 71.2024 32.392 71.2024 31.6364ZM79.968 30C79.8743 29.7131 79.7507 29.456 79.5973 29.2287C79.4467 28.9986 79.2663 28.8026 79.0561 28.6406C78.8487 28.4787 78.6129 28.3551 78.3487 28.2699C78.0845 28.1847 77.7947 28.142 77.4794 28.142C76.9624 28.142 76.4922 28.2756 76.0689 28.5426C75.6456 28.8097 75.3089 29.2031 75.0589 29.723C74.8089 30.2429 74.6839 30.8807 74.6839 31.6364C74.6839 32.392 74.8104 33.0298 75.0632 33.5497C75.3161 34.0696 75.6584 34.4631 76.0902 34.7301C76.522 34.9972 77.0078 35.1307 77.5476 35.1307C78.0476 35.1307 78.4879 35.0241 78.8686 34.8111C79.2521 34.5952 79.5504 34.2912 79.7635 33.8991C79.9794 33.5043 80.0874 33.0398 80.0874 32.5057L80.4112 32.5739H77.7862V31.6364H81.1101V32.5739C81.1101 33.2926 80.9567 33.9176 80.6499 34.4489C80.3459 34.9801 79.9254 35.392 79.3885 35.6847C78.8544 35.9744 78.2408 36.1193 77.5476 36.1193C76.7749 36.1193 76.0959 35.9375 75.5107 35.5739C74.9283 35.2102 74.4737 34.6932 74.147 34.0227C73.8232 33.3523 73.6612 32.5568 73.6612 31.6364C73.6612 30.946 73.7536 30.3253 73.9382 29.7741C74.1257 29.2202 74.3899 28.7486 74.7308 28.3594C75.0717 27.9702 75.4751 27.6719 75.9411 27.4645C76.407 27.2571 76.9197 27.1534 77.4794 27.1534C77.9396 27.1534 78.3686 27.223 78.7663 27.3622C79.1669 27.4986 79.5234 27.6932 79.8359 27.946C80.1513 28.196 80.4141 28.4957 80.6243 28.8452C80.8345 29.1918 80.9794 29.5767 81.0589 30H79.968ZM83.0085 36H81.9006L85.1051 27.2727H86.196L89.4006 36H88.2926L85.6847 28.6534H85.6165L83.0085 36ZM83.4176 32.5909H87.8835V33.5284H83.4176V32.5909ZM93.4531 36H90.7599V27.2727H93.5724C94.419 27.2727 95.1435 27.4474 95.7457 27.7969C96.348 28.1435 96.8097 28.642 97.1307 29.2926C97.4517 29.9403 97.6122 30.7159 97.6122 31.6193C97.6122 32.5284 97.4503 33.3111 97.1264 33.9673C96.8026 34.6207 96.331 35.1236 95.7116 35.4759C95.0923 35.8253 94.3395 36 93.4531 36ZM91.8168 35.0625H93.3849C94.1065 35.0625 94.7045 34.9233 95.179 34.6449C95.6534 34.3665 96.0071 33.9702 96.2401 33.456C96.473 32.9418 96.5895 32.3295 96.5895 31.6193C96.5895 30.9148 96.4744 30.3082 96.2443 29.7997C96.0142 29.2884 95.6705 28.8963 95.2131 28.6236C94.7557 28.348 94.1861 28.2102 93.5043 28.2102H91.8168V35.0625ZM106.749 31.6364C106.749 32.5568 106.582 33.3523 106.25 34.0227C105.918 34.6932 105.462 35.2102 104.882 35.5739C104.303 35.9375 103.641 36.1193 102.896 36.1193C102.152 36.1193 101.49 35.9375 100.911 35.5739C100.331 35.2102 99.875 34.6932 99.5426 34.0227C99.2102 33.3523 99.044 32.5568 99.044 31.6364C99.044 30.7159 99.2102 29.9205 99.5426 29.25C99.875 28.5795 100.331 28.0625 100.911 27.6989C101.49 27.3352 102.152 27.1534 102.896 27.1534C103.641 27.1534 104.303 27.3352 104.882 27.6989C105.462 28.0625 105.918 28.5795 106.25 29.25C106.582 29.9205 106.749 30.7159 106.749 31.6364ZM105.726 31.6364C105.726 30.8807 105.599 30.2429 105.347 29.723C105.097 29.2031 104.757 28.8097 104.328 28.5426C103.902 28.2756 103.425 28.142 102.896 28.142C102.368 28.142 101.889 28.2756 101.46 28.5426C101.034 28.8097 100.695 29.2031 100.442 29.723C100.192 30.2429 100.067 30.8807 100.067 31.6364C100.067 32.392 100.192 33.0298 100.442 33.5497C100.695 34.0696 101.034 34.4631 101.46 34.7301C101.889 34.9972 102.368 35.1307 102.896 35.1307C103.425 35.1307 103.902 34.9972 104.328 34.7301C104.757 34.4631 105.097 34.0696 105.347 33.5497C105.599 33.0298 105.726 32.392 105.726 31.6364Z" fill="#E82E2C"/>
<path d="M11 34.972V40.9C11.0021 41.5889 11.2767 42.249 11.7639 42.7361C12.251 43.2233 12.9111 43.4979 13.6 43.5H34.4C35.0889 43.4979 35.749 43.2233 36.2361 42.7361C36.7233 42.249 36.9979 41.5889 37 40.9V7.1C36.9979 6.41109 36.7233 5.75099 36.2361 5.26385C35.749 4.77672 35.0889 4.50211 34.4 4.5H13.6C12.9111 4.50211 12.251 4.77672 11.7639 5.26385C11.2767 5.75099 11.0021 6.41109 11 7.1V13.028" stroke="#E82E2C" stroke-linecap="round" stroke-linejoin="round"/>
<path d="M12.926 31.947L20.873 24L12.926 16.053M20.873 31.947H29.73" stroke="#E82E2C" stroke-linecap="round" stroke-linejoin="round"/>
</svg>
