<svg width="16" height="16" viewBox="0 0 16 16" fill="none" xmlns="http://www.w3.org/2000/svg">
<path d="M8.00016 1.33333C7.12468 1.33333 6.25778 1.50577 5.44894 1.8408C4.6401 2.17583 3.90517 2.6669 3.28612 3.28595C2.03587 4.5362 1.3335 6.23189 1.3335 8C1.3335 10.9467 3.24683 13.4467 5.8935 14.3333C6.22683 14.3867 6.3335 14.18 6.3335 14V12.8733C4.48683 13.2733 4.0935 11.98 4.0935 11.98C3.78683 11.2067 3.3535 11 3.3535 11C2.74683 10.5867 3.40016 10.6 3.40016 10.6C4.06683 10.6467 4.42016 11.2867 4.42016 11.2867C5.00016 12.3 5.98016 12 6.36016 11.84C6.42016 11.4067 6.5935 11.1133 6.78016 10.9467C5.30016 10.78 3.74683 10.2067 3.74683 7.66667C3.74683 6.92667 4.00016 6.33333 4.4335 5.86C4.36683 5.69333 4.1335 5 4.50016 4.1C4.50016 4.1 5.06016 3.92 6.3335 4.78C6.86016 4.63333 7.4335 4.56 8.00016 4.56C8.56683 4.56 9.14016 4.63333 9.66683 4.78C10.9402 3.92 11.5002 4.1 11.5002 4.1C11.8668 5 11.6335 5.69333 11.5668 5.86C12.0002 6.33333 12.2535 6.92667 12.2535 7.66667C12.2535 10.2133 10.6935 10.7733 9.20683 10.94C9.44683 11.1467 9.66683 11.5533 9.66683 12.1733V14C9.66683 14.18 9.7735 14.3933 10.1135 14.3333C12.7602 13.44 14.6668 10.9467 14.6668 8C14.6668 7.12452 14.4944 6.25761 14.1594 5.44878C13.8243 4.63994 13.3333 3.90501 12.7142 3.28595C12.0951 2.6669 11.3602 2.17583 10.5514 1.8408C9.74255 1.50577 8.87564 1.33333 8.00016 1.33333Z" fill="#7A7A7A"/>
</svg>
