<svg width="18" height="20" viewBox="0 0 18 20" fill="none" xmlns="http://www.w3.org/2000/svg">
<path d="M17.3676 16.111C17.3086 15.9889 17.2135 15.8879 17.0952 15.8216C16.9769 15.7554 16.8411 15.7271 16.7062 15.7406H16.144C14.4983 15.6958 12.9165 15.094 11.657 14.0338C10.3975 12.9735 9.53492 11.5174 9.21013 9.90348C8.88534 8.2895 9.11758 6.61309 9.86889 5.1482C10.6202 3.6833 11.8462 2.51655 13.3464 1.83861C13.4747 1.7848 13.5827 1.69192 13.6551 1.57318C13.7276 1.45445 13.7607 1.3159 13.7499 1.17725C13.7453 1.04394 13.7006 0.915137 13.6215 0.80773C13.5424 0.700323 13.4327 0.619336 13.3068 0.575399C12.2462 0.193333 11.1272 -0.00136488 9.99991 7.20167e-06C7.34777 7.20167e-06 4.80425 1.05357 2.92891 2.92891C1.05356 4.80426 0 7.34777 0 9.99992C0 12.6521 1.05356 15.1956 2.92891 17.0709C4.80425 18.9463 7.34777 19.9998 9.99991 19.9998C11.3676 20.008 12.7218 19.7292 13.975 19.1812C15.2282 18.6332 16.3524 17.8283 17.275 16.8186C17.3565 16.7219 17.4085 16.6038 17.4249 16.4784C17.4413 16.3529 17.4214 16.2254 17.3676 16.111ZM10.0197 18.7102C7.71842 18.7102 5.51135 17.796 3.88406 16.1687C2.25678 14.5414 1.34258 12.3343 1.34258 10.033C1.34258 7.73166 2.25678 5.52458 3.88406 3.8973C5.51135 2.27001 7.71842 1.35581 10.0197 1.35581C10.4629 1.3535 10.9054 1.3889 11.3425 1.46163C9.92578 2.45421 8.84142 3.85105 8.23109 5.46962C7.62076 7.08819 7.51285 8.85323 7.92145 10.5341C8.33006 12.215 9.23619 13.7335 10.5214 14.8913C11.8067 16.049 13.4113 16.7922 15.1255 17.0237C13.6532 18.1279 11.8601 18.7202 10.0197 18.7102Z" fill="#191C1F"/>
</svg>
