<svg width="32" height="25" viewBox="0 0 32 25" fill="none" xmlns="http://www.w3.org/2000/svg">
<path d="M21.8733 2.46018C21.72 2.46018 21.616 2.48105 21.508 2.50938V2.52877H21.5267C21.5987 2.68384 21.7213 2.79716 21.812 2.93583C21.884 3.09538 21.9453 3.25492 22.0173 3.41298L22.036 3.39061C22.1613 3.2922 22.2227 3.13414 22.2227 2.89408C22.1693 2.824 22.1613 2.75392 22.116 2.68533C22.0627 2.58543 21.948 2.53622 21.876 2.4572L21.8733 2.46018ZM7.69333 22.1335H6.45733C6.42257 19.9368 6.30246 17.7428 6.09733 15.5578H6.08667L4.20667 22.1335H3.26667L1.4 15.5578H1.38667C1.24066 17.7463 1.15395 19.9391 1.12667 22.1335H0C0.0733333 19.202 0.256 16.4525 0.546667 13.8878H2.08L3.86 19.9475H3.87067L5.66667 13.8878H7.12667C7.44933 16.8923 7.63867 19.6434 7.69733 22.1335H7.69333ZM13.0493 16.0499C12.5453 19.0991 11.8813 21.3178 11.06 22.7001C10.4173 23.7677 9.71333 24.3 8.94933 24.3C8.74533 24.3 8.496 24.2314 8.19467 24.0942V23.3576C8.34133 23.383 8.51467 23.3964 8.70933 23.3964C9.06667 23.3964 9.35333 23.2846 9.572 23.0654C9.83467 22.797 9.96533 22.4958 9.96533 22.1633C9.96533 21.9322 9.86267 21.4625 9.65867 20.7557L8.30667 16.0499H9.52L10.4893 19.5688C10.708 20.368 10.8 20.9257 10.7627 21.2433C11.296 19.6568 11.6667 17.9227 11.876 16.0499H13.0493ZM29.4827 22.1335H25.976V13.8878H27.156V21.1195H29.4827V22.1335ZM25.056 22.3348L23.7013 21.5892C23.8213 21.4759 23.9373 21.3536 24.0413 21.2164C24.6187 20.462 24.9053 19.3407 24.9053 17.857C24.9053 15.1284 23.948 13.7625 22.032 13.7625C21.0933 13.7625 20.36 14.1085 19.832 14.8018C19.2587 15.5593 18.9707 16.6746 18.9707 18.1493C18.9707 19.5986 19.224 20.6633 19.736 21.3402C20.2027 21.9516 20.9053 22.2572 21.8467 22.2572C22.1987 22.2572 22.5213 22.208 22.8133 22.1111L24.58 23.2622L25.06 22.3348H25.056ZM20.6667 20.4828C20.3667 19.946 20.2173 19.0812 20.2173 17.8943C20.2173 15.8173 20.7827 14.778 21.9107 14.778C22.5013 14.778 22.9373 15.027 23.2133 15.5235C23.512 16.0633 23.6613 16.9192 23.6613 18.0926C23.6613 20.1861 23.096 21.2358 21.968 21.2358C21.3747 21.2358 20.9413 20.9868 20.664 20.4903L20.6667 20.4828ZM18.456 19.8491C18.456 20.5499 18.2267 21.1255 17.768 21.5728C17.3093 22.0201 16.6973 22.2438 15.9227 22.2438C15.1987 22.2438 14.504 21.9873 13.8253 21.4759L14.1413 20.7661C14.7253 21.0942 15.252 21.2552 15.728 21.2552C16.1707 21.2552 16.5187 21.1464 16.772 20.9272C16.8986 20.8204 17.0009 20.6817 17.0704 20.5223C17.1399 20.363 17.1747 20.1875 17.172 20.0102C17.172 19.5181 16.8653 19.1006 16.308 18.7502C15.7907 18.4326 14.7573 17.7706 14.7573 17.7706C14.1947 17.3128 13.9147 16.8222 13.9147 16.0156C13.9147 15.3446 14.124 14.8078 14.5413 14.3977C14.9613 13.9832 15.5013 13.779 16.168 13.779C16.8507 13.779 17.4747 13.9817 18.0347 14.3903L17.7507 15.1C17.3032 14.8802 16.8207 14.7636 16.332 14.7571C15.9547 14.7571 15.6627 14.8585 15.46 15.0643C15.3572 15.1595 15.2742 15.2789 15.2171 15.4139C15.16 15.5489 15.13 15.6962 15.1293 15.8456C15.1293 16.3347 15.4413 16.7551 16.0173 17.113C16.5413 17.4336 17.6 18.112 17.6 18.112C18.1773 18.5668 18.464 19.0514 18.464 19.8536L18.456 19.8491ZM30.9653 11.1233C30.252 11.1025 29.6987 11.183 29.236 11.4037C29.1027 11.4633 28.8893 11.4633 28.8707 11.6527C28.944 11.7317 28.9547 11.8614 29.0173 11.9718C29.124 12.1716 29.308 12.4385 29.4787 12.5786C29.6653 12.7427 29.852 12.9007 30.048 13.0409C30.3947 13.2794 30.788 13.4211 31.128 13.6612C31.3213 13.8013 31.5187 13.9788 31.7147 14.1279C31.812 14.2024 31.8747 14.3366 32 14.3843V14.3545C31.9387 14.265 31.92 14.1353 31.86 14.0354C31.7707 13.9355 31.6813 13.846 31.5933 13.7476C31.3316 13.3618 31.0191 13.0225 30.6667 12.7412C30.3813 12.5235 29.7573 12.2193 29.64 11.854L29.6227 11.8331C29.8173 11.8137 30.0493 11.7347 30.236 11.675C30.5387 11.5856 30.816 11.605 31.1293 11.517C31.2707 11.4767 31.4133 11.4275 31.556 11.3768V11.2874C31.396 11.1084 31.276 10.8654 31.1107 10.6984C30.6492 10.2473 30.157 9.83699 29.6387 9.47123C29.3587 9.27142 29.004 9.14319 28.7093 8.97321C28.6027 8.91356 28.424 8.88374 28.3627 8.78384C28.2027 8.56614 28.1093 8.27687 27.996 8.01743C27.7342 7.44945 27.4909 6.87103 27.2667 6.2833C27.1067 5.89264 27.0093 5.50347 26.8133 5.14561C25.8933 3.45025 24.8973 2.4229 23.3653 1.41791C23.036 1.20916 22.6413 1.1197 22.224 1.00936C22.0013 0.997429 21.7787 0.979537 21.5573 0.969099C21.4107 0.899018 21.2693 0.709651 21.144 0.618696C20.6373 0.260837 19.3253 -0.514524 18.952 0.511338C18.712 1.15847 19.308 1.79665 19.5147 2.12468C19.668 2.35282 19.8613 2.61376 19.968 2.87022C20.0307 3.04319 20.048 3.22063 20.1107 3.40105C20.252 3.83942 20.3867 4.3285 20.5733 4.73854C20.6707 4.9473 20.7773 5.16648 20.9027 5.35436C20.9747 5.46321 21.0973 5.51391 21.1253 5.69284C21 5.89562 20.992 6.19085 20.92 6.43837C20.6 7.56712 20.7253 8.96277 21.1787 9.7933C21.3213 10.0408 21.6613 10.5895 22.116 10.3793C22.516 10.2004 22.428 9.63375 22.5427 9.13424C22.5693 9.01496 22.552 8.93593 22.6067 8.85541V8.87778C22.732 9.1581 22.8573 9.425 22.972 9.70533C23.2467 10.1944 23.7267 10.7014 24.128 11.0398C24.3413 11.2188 24.5107 11.5289 24.7773 11.6393V11.6094H24.7573C24.7 11.523 24.624 11.4812 24.552 11.4111C24.3829 11.226 24.2269 11.0266 24.0853 10.8147C23.7097 10.2407 23.3766 9.63325 23.0893 8.99855C22.9427 8.68543 22.82 8.34845 22.7027 8.03979C22.6493 7.92051 22.6493 7.74158 22.56 7.68193C22.4267 7.89963 22.2307 8.089 22.1333 8.35739C21.964 8.78682 21.9467 9.31466 21.8827 9.86338C21.8467 9.87382 21.864 9.86338 21.8467 9.88425C21.5613 9.80672 21.464 9.4757 21.3573 9.19836C21.0907 8.4901 21.0467 7.3524 21.2773 6.53678C21.34 6.32803 21.6067 5.66898 21.5 5.46917C21.444 5.27981 21.268 5.17096 21.1707 5.01738C21.0455 4.81749 20.9383 4.60421 20.8507 4.38069C20.6373 3.82302 20.5307 3.20572 20.2987 2.64805C20.192 2.3901 20.0053 2.12021 19.8533 1.88313C19.684 1.61474 19.4973 1.42537 19.3627 1.10777C19.3187 0.998921 19.256 0.818501 19.3267 0.699214C19.3453 0.618696 19.3827 0.587383 19.452 0.565017C19.5693 0.457659 19.8987 0.597821 20.0147 0.657464C20.344 0.806571 20.6213 0.946733 20.8973 1.15548C21.0227 1.2539 21.1573 1.44326 21.3173 1.49247H21.504C21.7893 1.56255 22.1107 1.51334 22.3773 1.60132C22.8507 1.7713 23.2773 2.01882 23.66 2.28721C24.8391 3.12954 25.7982 4.30546 26.44 5.69582C26.5467 5.92544 26.5933 6.13569 26.6907 6.37426C26.8773 6.86631 27.108 7.36284 27.2973 7.8385C27.484 8.30819 27.664 8.78682 27.932 9.17599C28.0653 9.38474 28.6013 9.49359 28.8413 9.60244C29.0187 9.69191 29.2947 9.77392 29.4547 9.88276C29.7613 10.0915 30.06 10.3301 30.348 10.5597C30.4947 10.673 30.9387 10.922 30.9653 11.1233Z" fill="#7A7A7A"/>
</svg>
