<svg width="54" height="47" viewBox="0 0 54 47" fill="none" xmlns="http://www.w3.org/2000/svg">
<path d="M36.9113 4.6875C36.6525 4.6875 36.477 4.72727 36.2948 4.78125V4.81819H36.3263C36.4478 5.11365 36.6547 5.32957 36.8077 5.59379C36.9292 5.89778 37.0328 6.20176 37.1543 6.50291L37.1858 6.4603C37.3973 6.27279 37.5007 5.97164 37.5007 5.51424C37.4108 5.38071 37.3973 5.24718 37.3208 5.11649C37.2308 4.92614 37.0373 4.83239 36.9157 4.68182L36.9113 4.6875ZM12.9825 42.172H10.8967C10.8381 37.9865 10.6354 33.8063 10.2892 29.6431H10.2712L7.09875 42.172H5.5125L2.3625 29.6431H2.34C2.09361 33.8128 1.94729 37.991 1.90125 42.172H0C0.12375 36.5865 0.432 31.3477 0.9225 26.4611H3.51L6.51375 38.007H6.53175L9.5625 26.4611H12.0262C12.5707 32.1858 12.8902 37.4275 12.9892 42.172H12.9825ZM22.0208 30.5806C21.1702 36.3905 20.0497 40.6179 18.6637 43.2516C17.5793 45.2858 16.3913 46.3 15.102 46.3C14.7577 46.3 14.337 46.1693 13.8285 45.9079V44.5045C14.076 44.5528 14.3685 44.5783 14.697 44.5783C15.3 44.5783 15.7837 44.3653 16.1528 43.9476C16.596 43.4362 16.8165 42.8624 16.8165 42.2288C16.8165 41.7884 16.6432 40.8935 16.299 39.5469L14.0175 30.5806H16.065L17.7008 37.2854C18.0697 38.8082 18.225 39.8708 18.162 40.4759C19.062 37.453 19.6875 34.1489 20.0407 30.5806H22.0208ZM49.752 42.172H43.8345V26.4611H45.8258V40.2401H49.752V42.172ZM42.282 42.5555L39.996 41.135C40.1985 40.9191 40.3942 40.6861 40.5698 40.4248C41.544 38.9872 42.0278 36.8507 42.0278 34.0239C42.0278 28.8248 40.4123 26.2225 37.179 26.2225C35.595 26.2225 34.3575 26.8816 33.4665 28.2027C32.499 29.6459 32.013 31.771 32.013 34.5808C32.013 37.3422 32.4405 39.3707 33.3045 40.6606C34.092 41.8254 35.2778 42.4078 36.8662 42.4078C37.4603 42.4078 38.0048 42.314 38.4975 42.1294L41.4787 44.3226L42.2887 42.5555H42.282ZM34.875 39.027C34.3688 38.0042 34.1167 36.3564 34.1167 34.095C34.1167 30.1374 35.0708 28.1572 36.9743 28.1572C37.971 28.1572 38.7067 28.6317 39.1725 29.5777C39.6765 30.6062 39.9285 32.2369 39.9285 34.4728C39.9285 38.4616 38.9745 40.4617 37.071 40.4617C36.0697 40.4617 35.3385 39.9872 34.8705 39.0412L34.875 39.027ZM31.1445 37.8195C31.1445 39.1548 30.7575 40.2515 29.9835 41.1038C29.2095 41.9561 28.1768 42.3822 26.8695 42.3822C25.6478 42.3822 24.4755 41.8936 23.3303 40.9191L23.8635 39.5668C24.849 40.1918 25.7377 40.4986 26.541 40.4986C27.288 40.4986 27.8753 40.2912 28.3028 39.8736C28.5164 39.6702 28.6889 39.4059 28.8063 39.1022C28.9236 38.7986 28.9823 38.4642 28.9777 38.1264C28.9777 37.1888 28.4603 36.3933 27.5198 35.7257C26.6467 35.1206 24.903 33.8591 24.903 33.8591C23.9535 32.9869 23.481 32.0523 23.481 30.5153C23.481 29.2368 23.8342 28.214 24.5385 27.4327C25.2472 26.6429 26.1585 26.2537 27.2835 26.2537C28.4355 26.2537 29.4885 26.6401 30.4335 27.4185L29.9543 28.7709C29.1992 28.352 28.3849 28.1298 27.5602 28.1174C26.9235 28.1174 26.4307 28.3106 26.0888 28.7027C25.9152 28.8842 25.7753 29.1116 25.6789 29.3688C25.5825 29.626 25.5319 29.9068 25.5308 30.1914C25.5308 31.1232 26.0572 31.9244 27.0292 32.6063C27.9135 33.2171 29.7 34.5097 29.7 34.5097C30.6742 35.3763 31.158 36.2996 31.158 37.8281L31.1445 37.8195ZM52.254 21.1939C51.0503 21.1541 50.1165 21.3075 49.3358 21.728C49.1107 21.8416 48.7508 21.8416 48.7192 22.2024C48.843 22.353 48.861 22.6002 48.9668 22.8104C49.1468 23.1911 49.4572 23.6996 49.7452 23.9667C50.0602 24.2792 50.3752 24.5804 50.706 24.8474C51.291 25.302 51.9548 25.5719 52.5285 26.0293C52.8548 26.2963 53.1877 26.6344 53.5185 26.9185C53.6827 27.0606 53.7885 27.3163 54 27.4072V27.3504C53.8965 27.1799 53.865 26.9327 53.7638 26.7424C53.613 26.552 53.4622 26.3816 53.3138 26.1941C52.872 25.459 52.3448 24.8125 51.75 24.2764C51.2685 23.8616 50.2155 23.282 50.0175 22.586L49.9882 22.5462C50.3167 22.5093 50.7083 22.3587 51.0233 22.245C51.534 22.0746 52.002 22.1115 52.5308 21.9439C52.7692 21.8672 53.01 21.7734 53.2507 21.6768V21.5064C52.9808 21.1654 52.7783 20.7024 52.4993 20.3842C51.7205 19.5247 50.89 18.7429 50.0153 18.046C49.5428 17.6653 48.9442 17.421 48.447 17.0971C48.267 16.9835 47.9655 16.9266 47.862 16.7363C47.592 16.3215 47.4345 15.7703 47.2432 15.276C46.8014 14.1938 46.3909 13.0917 46.0125 11.9719C45.7425 11.2275 45.5783 10.486 45.2475 9.80418C43.695 6.57394 42.0143 4.61647 39.429 2.70162C38.8732 2.30388 38.2072 2.13342 37.503 1.92318C37.1272 1.90045 36.7515 1.86636 36.378 1.84647C36.1305 1.71294 35.892 1.35213 35.6805 1.17883C34.8255 0.496985 32.6115 -0.980348 31.9815 0.974278C31.5765 2.20728 32.5822 3.42324 32.931 4.04827C33.1898 4.48294 33.516 4.98012 33.696 5.46878C33.8018 5.79834 33.831 6.13642 33.9368 6.48019C34.1753 7.31545 34.4025 8.2473 34.7175 9.02858C34.8818 9.42633 35.0617 9.84396 35.2733 10.2019C35.3947 10.4093 35.6017 10.5059 35.649 10.8468C35.4375 11.2332 35.424 11.7957 35.3025 12.2674C34.7625 14.418 34.974 17.0772 35.739 18.6597C35.9797 19.1313 36.5535 20.1768 37.3208 19.7762C37.9958 19.4353 37.8472 18.3557 38.0407 17.4039C38.0858 17.1766 38.0565 17.0261 38.1488 16.8727V16.9153C38.3602 17.4494 38.5718 17.9579 38.7653 18.492C39.2287 19.4239 40.0387 20.3898 40.716 21.0348C41.076 21.3757 41.3618 21.9666 41.8118 22.1768V22.12H41.778C41.6813 21.9553 41.553 21.8757 41.4315 21.7422C41.1462 21.3895 40.8829 21.0096 40.644 20.6058C40.0101 19.512 39.4479 18.3547 38.9632 17.1454C38.7157 16.5488 38.5088 15.9067 38.3108 15.3186C38.2208 15.0913 38.2207 14.7504 38.07 14.6368C37.845 15.0516 37.5143 15.4124 37.35 15.9238C37.0643 16.742 37.035 17.7477 36.927 18.7932C36.8663 18.8131 36.8955 18.7932 36.8662 18.833C36.3848 18.6852 36.2205 18.0545 36.0405 17.5261C35.5905 16.1766 35.5163 14.0089 35.9055 12.4549C36.0112 12.0571 36.4613 10.8014 36.2812 10.4207C36.1867 10.0599 35.8898 9.85248 35.7255 9.55986C35.5142 9.179 35.3333 8.77264 35.1855 8.34674C34.8255 7.2842 34.6455 6.10801 34.254 5.04547C34.074 4.55397 33.759 4.03974 33.5025 3.58802C33.2168 3.07664 32.9018 2.71583 32.6745 2.11069C32.6003 1.90329 32.4945 1.55953 32.6138 1.33225C32.6452 1.17883 32.7082 1.11917 32.8252 1.07656C33.0233 0.872001 33.579 1.13906 33.7747 1.2527C34.3305 1.5368 34.7985 1.80386 35.2643 2.2016C35.4757 2.38911 35.703 2.74992 35.973 2.84367H36.288C36.7695 2.9772 37.3118 2.88345 37.7618 3.05107C38.5605 3.37495 39.2805 3.84656 39.9263 4.35794C41.916 5.96287 43.5344 8.20341 44.6175 10.8525C44.7975 11.29 44.8762 11.6906 45.0405 12.1452C45.3555 13.0827 45.7447 14.0288 46.0642 14.9351C46.3792 15.83 46.683 16.742 47.1353 17.4835C47.3602 17.8812 48.2648 18.0886 48.6698 18.296C48.969 18.4665 49.4347 18.6227 49.7048 18.8301C50.2222 19.2279 50.7262 19.6824 51.2122 20.1199C51.4598 20.3359 52.209 20.8103 52.254 21.1939Z" fill="#7A7A7A"/>
</svg>
