<svg width="42" height="31" viewBox="0 0 42 31" fill="none" xmlns="http://www.w3.org/2000/svg">
<path d="M21 0C9.22425 0 0 6.80808 0 15.5C0 24.1919 9.22425 31 21 31C32.7758 31 42 24.1919 42 15.5C42 6.80808 32.7758 0 21 0ZM18.8195 4.76923H21.112L20.384 9.53846H22.4315C23.73 9.53846 24.6015 9.78646 25.0985 10.4041C25.5833 11.0145 25.7303 12.0161 25.536 13.3801L24.626 19.0769H22.295L23.1332 13.8093C23.2347 13.0868 23.1945 12.5836 23.016 12.3189C22.8393 12.0542 22.449 11.9231 21.8645 11.9231H20.0287L18.921 19.0769H16.625L18.8195 4.76923ZM8.75 9.53846H13.4155C15.6397 9.53846 16.9873 11.5702 16.4605 14.601C15.848 18.1231 14.21 19.0769 11.193 19.0769H9.751L9.29425 22.6538H6.9755L8.75 9.53846ZM27.125 9.53846H31.7905C34.0148 9.53846 35.3623 11.5702 34.8355 14.601C34.223 18.1231 32.5832 19.0769 29.568 19.0769H28.126L27.6692 22.6538H25.3505L27.125 9.53846ZM10.7363 11.9231L10.0765 16.6923H11.5727C12.8677 16.6923 14.0718 16.492 14.273 13.8594C14.3483 12.8412 14.0367 11.9231 12.5405 11.9231H10.7363ZM29.1113 11.9231L28.4515 16.6923H29.9478C31.2428 16.6923 32.4468 16.492 32.648 13.8594C32.7233 12.8412 32.4135 11.9231 30.9155 11.9231H29.1113Z" fill="#7A7A7A"/>
</svg>
