<svg width="64" height="53" viewBox="0 0 64 53" fill="none" xmlns="http://www.w3.org/2000/svg">
<path d="M32 0C14.056 0 0 11.6396 0 26.5C0 41.3604 14.056 53 32 53C49.944 53 64 41.3604 64 26.5C64 11.6396 49.944 0 32 0ZM28.6773 8.15385H32.1707L31.0613 16.3077H34.1813C36.16 16.3077 37.488 16.7317 38.2453 17.7876C38.984 18.8313 39.208 20.5436 38.912 22.8756L37.5253 32.6154H33.9733L35.2507 23.6095C35.4053 22.3742 35.344 21.5139 35.072 21.0614C34.8027 20.6088 34.208 20.3846 33.3173 20.3846H30.52L28.832 32.6154H25.3333L28.6773 8.15385ZM13.3333 16.3077H20.4427C23.832 16.3077 25.8853 19.7812 25.0827 24.963C24.1493 30.9846 21.6533 32.6154 17.056 32.6154H14.8587L14.1627 38.7308H10.6293L13.3333 16.3077ZM41.3333 16.3077H48.4427C51.832 16.3077 53.8853 19.7812 53.0827 24.963C52.1493 30.9846 49.6507 32.6154 45.056 32.6154H42.8587L42.1627 38.7308H38.6293L41.3333 16.3077ZM16.36 20.3846L15.3547 28.5385H17.6347C19.608 28.5385 21.4427 28.196 21.7493 23.6951C21.864 21.9542 21.3893 20.3846 19.1093 20.3846H16.36ZM44.36 20.3846L43.3547 28.5385H45.6347C47.608 28.5385 49.4427 28.196 49.7493 23.6951C49.864 21.9542 49.392 20.3846 47.1093 20.3846H44.36Z" fill="#7A7A7A"/>
</svg>
