<svg width="31" height="34" viewBox="0 0 31 34" fill="none" xmlns="http://www.w3.org/2000/svg">
<path d="M13.9369 14.3446C13.404 14.6449 12.9742 15.0926 12.702 15.6311C12.4299 16.1697 12.3274 16.7749 12.4078 17.3702C12.4881 17.9655 12.7475 18.5243 13.1533 18.9757C13.5591 19.4272 14.0929 19.7512 14.6874 19.9066C15.2818 20.0621 15.9101 20.0421 16.4929 19.8491C17.0757 19.6562 17.5868 19.2989 17.9615 18.8226C18.3362 18.3463 18.5578 17.7722 18.5981 17.1731C18.6385 16.5739 18.4958 15.9765 18.1882 15.4564C17.984 15.111 17.7119 14.8082 17.3877 14.5654C17.0635 14.3226 16.6934 14.1445 16.2986 14.0413C15.9038 13.938 15.4921 13.9117 15.0868 13.9637C14.6816 14.0158 14.2909 14.1452 13.9369 14.3446ZM27.8844 17.6392C27.68 17.4114 27.4645 17.183 27.238 16.9541C27.396 16.7909 27.5493 16.6283 27.698 16.4662C30.4945 13.3994 31.6758 10.3224 30.5816 8.4745C29.5327 6.7014 26.4121 6.1727 22.504 6.9139C22.1196 6.98757 21.7368 7.0703 21.3558 7.1621C21.2827 6.9173 21.2054 6.67363 21.1241 6.4311C19.7982 2.533 17.6568 -0.00169915 15.4684 8.54602e-07C13.3707 8.54602e-07 11.3426 2.3749 10.048 6.0486C9.92022 6.41127 9.80232 6.7762 9.6943 7.1434C9.43992 7.0822 9.18437 7.02553 8.92766 6.9734C4.80527 6.1489 1.48609 6.6929 0.393641 8.5442C-0.653511 10.3173 0.440684 13.2192 3.05595 16.1466C3.31614 16.4356 3.5833 16.7189 3.85743 16.9966C3.53335 17.3196 3.22844 17.6443 2.9427 17.9673C0.390157 20.8539 -0.641314 23.7065 0.404095 25.4728C1.48435 27.2986 4.75648 27.8953 8.74123 27.1303C9.06415 27.068 9.38532 26.9977 9.70475 26.9195C9.82091 27.3173 9.94926 27.7123 10.0898 28.1044C11.3792 31.7033 13.395 34 15.4859 34C17.6464 34 19.8104 31.5299 21.1224 27.7797C21.2269 27.4839 21.3227 27.1762 21.4168 26.86C21.8292 26.9597 22.2444 27.0481 22.6626 27.1252C26.501 27.8341 29.5484 27.2782 30.592 25.5102C31.6705 23.6827 30.5572 20.6193 27.8844 17.6392ZM1.68298 9.2684C2.35553 8.1294 5.06836 7.684 8.62798 8.398C8.85565 8.44333 9.08738 8.49433 9.32318 8.551C8.97522 10.051 8.72959 11.5719 8.58791 13.1036C7.30424 13.9843 6.0803 14.9451 4.92375 15.98C4.66936 15.7227 4.42137 15.4592 4.17976 15.1895C1.93736 12.6837 1.05225 10.3377 1.68298 9.2684ZM8.45549 19.006C7.56689 18.3481 6.73927 17.6749 5.98832 16.9983C6.73753 16.3251 7.56515 15.6553 8.45375 14.9991C8.42122 15.6666 8.40554 16.3347 8.4067 17.0034C8.4067 17.6721 8.42296 18.3396 8.45549 19.006ZM8.45549 25.704C6.94526 26.0322 5.38602 26.0863 3.85569 25.8638C3.43615 25.8318 3.02781 25.7162 2.6559 25.524C2.28398 25.3319 1.95641 25.0674 1.69343 24.7469C1.05748 23.6759 1.88683 21.3843 4.07 18.9159C4.34413 18.6065 4.62755 18.305 4.92026 18.0115C6.07734 19.0527 7.30372 20.0182 8.59139 20.9015C8.73449 22.4526 8.98244 23.9927 9.33363 25.5119C9.04324 25.5833 8.74995 25.6479 8.45375 25.7057L8.45549 25.704ZM20.8262 12.0377C20.2419 11.6784 19.6507 11.3311 19.0525 10.9956C18.4624 10.6647 17.8659 10.3456 17.2631 10.0385C18.2542 9.63008 19.2654 9.2698 20.293 8.959C20.5237 9.97584 20.7016 11.0034 20.8262 12.0377ZM11.4576 6.5195C12.5657 3.3745 14.207 1.4535 15.4719 1.4535C16.8188 1.4518 18.5681 3.5241 19.7128 6.8884C19.7871 7.10827 19.8568 7.32927 19.9219 7.5514C18.4192 8.00579 16.9489 8.55666 15.5207 9.2004C14.0972 8.54878 12.6303 7.99161 11.13 7.5327C11.231 7.1927 11.3402 6.85497 11.4576 6.5195ZM10.7606 8.9403C11.7835 9.25443 12.7896 9.61869 13.7749 10.0317C12.5529 10.646 11.3635 11.3152 10.2065 12.0394C10.3459 10.9548 10.5324 9.9161 10.7606 8.9403ZM10.2083 21.9623C10.7856 22.3238 11.3716 22.6712 11.9663 23.0044C12.5727 23.3444 13.1865 23.6708 13.808 23.9836C12.8156 24.4109 11.8014 24.7882 10.7693 25.1141C10.5295 24.0737 10.3423 23.0224 10.2083 21.964V21.9623ZM19.7145 27.3105C19.251 28.7505 18.5198 30.0949 17.5575 31.2766C17.3199 31.6154 17.0137 31.903 16.6576 32.1217C16.3016 32.3404 15.9034 32.4856 15.4876 32.5482C14.2174 32.5482 12.5988 30.7037 11.4976 27.625C11.3675 27.2612 11.2479 26.894 11.1387 26.5234C12.6462 26.0489 14.1189 25.4753 15.5468 24.8064C16.9872 25.4553 18.4696 26.0113 19.9846 26.4707C19.901 26.7529 19.811 27.0328 19.7145 27.3105ZM20.3453 25.0597C19.3043 24.7425 18.2797 24.376 17.2753 23.9615C17.8665 23.6589 18.4618 23.3387 19.0612 23.001C19.6768 22.6542 20.2762 22.2989 20.8593 21.9351C20.7428 22.9845 20.5713 24.0274 20.3453 25.0597ZM21.1241 16.9966C21.1241 18.0291 21.091 19.0604 21.0248 20.0906C20.1658 20.6584 19.2598 21.2126 18.3172 21.743C17.3763 22.2717 16.4476 22.7579 15.5347 23.1982C14.574 22.7494 13.632 22.2655 12.7086 21.7464C11.7909 21.2307 10.8942 20.6816 10.0184 20.0991C9.93707 19.0678 9.89641 18.0353 9.89641 17.0017C9.89641 15.9692 9.9359 14.9373 10.0149 13.906C11.7664 12.7393 13.6057 11.7033 15.5172 10.8069C16.4651 11.2568 17.3961 11.7391 18.3102 12.2536C19.2278 12.7681 20.1281 13.3116 21.0109 13.8839C21.0864 14.9198 21.1241 15.9573 21.1241 16.9966ZM22.7898 8.3385C26.1386 7.7044 28.6615 8.1311 29.294 9.2004C29.9683 10.3394 29.003 12.852 26.5864 15.5006C26.4528 15.6468 26.3146 15.7936 26.1717 15.9409C24.9947 14.9028 23.7466 13.944 22.4361 13.0713C22.3041 11.5565 22.0684 10.0521 21.7304 8.568C22.0905 8.48187 22.4436 8.40537 22.7898 8.3385ZM22.5633 14.943C23.4476 15.5728 24.2979 16.2469 25.1106 16.9626C24.3016 17.6898 23.4543 18.3753 22.572 19.0162C22.5987 18.343 22.6121 17.6698 22.6121 16.9966C22.6121 16.3121 22.5958 15.6275 22.5633 14.943ZM29.3044 24.7843C28.6702 25.857 26.224 26.3041 22.9396 25.6989C22.5633 25.6298 22.1776 25.547 21.7827 25.4507C22.1125 23.9475 22.3378 22.4242 22.457 20.8913C23.7652 20.0039 25.0093 19.0298 26.1804 17.9758C26.386 18.1832 26.5811 18.3895 26.7658 18.5946C27.8131 19.7057 28.6417 20.9954 29.2103 22.3992C29.3923 22.7694 29.4946 23.172 29.5108 23.5822C29.5269 23.9925 29.4567 24.4016 29.3044 24.7843Z" fill="#7A7A7A"/>
</svg>
