<svg width="51" height="54" viewBox="0 0 51 54" fill="none" xmlns="http://www.w3.org/2000/svg">
<path d="M22.9285 22.7826C22.0517 23.2595 21.3447 23.9706 20.8969 24.8259C20.4491 25.6813 20.2806 26.6425 20.4128 27.588C20.5449 28.5335 20.9718 29.4209 21.6393 30.138C22.3068 30.855 23.1851 31.3695 24.1631 31.6164C25.141 31.8633 26.1747 31.8315 27.1335 31.5251C28.0923 31.2186 28.9331 30.6513 29.5496 29.8947C30.166 29.1382 30.5305 28.2265 30.5969 27.2749C30.6633 26.3232 30.4287 25.3744 29.9226 24.5484C29.5865 23.9998 29.139 23.519 28.6056 23.1333C28.0722 22.7477 27.4634 22.4648 26.8139 22.3008C26.1644 22.1368 25.487 22.095 24.8203 22.1777C24.1536 22.2603 23.5108 22.4659 22.9285 22.7826ZM45.8744 28.0152C45.538 27.6534 45.1836 27.2907 44.8109 26.9271C45.0708 26.6679 45.3231 26.4096 45.5677 26.1522C50.1683 21.2814 52.1117 16.3944 50.3116 13.4595C48.586 10.6434 43.4522 9.8037 37.0228 10.9809C36.3903 11.0979 35.7606 11.2293 35.1338 11.3751C35.0134 10.9863 34.8863 10.5993 34.7526 10.2141C32.5712 4.023 29.0483 -0.00269864 25.4481 1.35731e-06C21.9969 1.35731e-06 18.6603 3.7719 16.5306 9.6066C16.3204 10.1826 16.1264 10.7622 15.9487 11.3454C15.5302 11.2482 15.1098 11.1582 14.6874 11.0754C7.90544 9.7659 2.44486 10.6299 0.647603 13.5702C-1.07513 16.3863 0.724996 20.9952 5.02753 25.6446C5.45559 26.1036 5.89511 26.5536 6.34609 26.9946C5.81294 27.5076 5.31131 28.0233 4.84121 28.5363C0.641871 33.1209 -1.05507 37.6515 0.664801 40.4568C2.442 43.3566 7.82518 44.3043 14.3807 43.0893C14.912 42.9903 15.4404 42.8787 15.9659 42.7545C16.157 43.3863 16.3681 44.0136 16.5994 44.6364C18.7205 50.3523 22.037 54 25.4767 54C29.0311 54 32.5913 50.0769 34.7497 44.1207C34.9217 43.6509 35.0793 43.1622 35.2341 42.66C35.9125 42.8184 36.5957 42.9588 37.2836 43.0812C43.5984 44.2071 48.6118 43.3242 50.3288 40.5162C52.1032 37.6137 50.2715 32.7483 45.8744 28.0152ZM2.76877 14.7204C3.87522 12.9114 8.33827 12.204 14.1944 13.338C14.569 13.41 14.9502 13.491 15.3381 13.581C14.7657 15.9634 14.3616 18.3789 14.1285 20.8116C12.0166 22.2104 10.0031 23.7364 8.10036 25.38C7.68186 24.9714 7.27387 24.5529 6.87639 24.1245C3.18727 20.1447 1.73112 16.4187 2.76877 14.7204ZM13.9106 30.186C12.4488 29.1411 11.0872 28.0719 9.85176 26.9973C11.0843 25.9281 12.4459 24.8643 13.9078 23.8221C13.8543 24.8823 13.8285 25.9434 13.8304 27.0054C13.8304 28.0674 13.8571 29.1276 13.9106 30.186ZM13.9106 40.824C11.4261 41.3452 8.86087 41.4312 6.34323 41.0778C5.65303 41.027 4.98123 40.8433 4.36938 40.5382C3.75752 40.2331 3.21862 39.813 2.78597 39.3039C1.73972 37.6029 3.10415 33.9633 6.6958 30.0429C7.14679 29.5515 7.61306 29.0727 8.09463 28.6065C9.9982 30.2602 12.0158 31.7936 14.1342 33.1965C14.3696 35.66 14.7776 38.1061 15.3553 40.5189C14.8776 40.6323 14.3951 40.7349 13.9078 40.8267L13.9106 40.824ZM34.2624 19.1187C33.3012 18.5481 32.3285 17.9964 31.3444 17.4636C30.3736 16.938 29.3923 16.4313 28.4005 15.9435C30.031 15.2948 31.6947 14.7226 33.3853 14.229C33.7647 15.844 34.0575 17.4759 34.2624 19.1187ZM18.8495 10.3545C20.6726 5.3595 23.3728 2.3085 25.4538 2.3085C27.6696 2.3058 30.5475 5.5971 32.4307 10.9404C32.553 11.2896 32.6677 11.6406 32.7747 11.9934C30.3025 12.7151 27.8837 13.59 25.5341 14.6124C23.1922 13.5775 20.779 12.6926 18.3106 11.9637C18.4769 11.4237 18.6565 10.8873 18.8495 10.3545ZM17.7029 14.1993C19.3858 14.6982 21.0409 15.2767 22.6619 15.9327C20.6516 16.9083 18.6947 17.9712 16.7914 19.1214C17.0207 17.3988 17.3274 15.7491 17.7029 14.1993ZM16.7943 34.8813C17.744 35.4555 18.7081 36.0072 19.6865 36.5364C20.6841 37.0764 21.694 37.5948 22.7164 38.0916C21.0837 38.7703 19.4152 39.3696 17.7173 39.8871C17.3228 38.2347 17.0147 36.5649 16.7943 34.884V34.8813ZM32.4336 43.3755C31.671 45.6625 30.4681 47.7977 28.8849 49.6746C28.4941 50.2126 27.9902 50.6695 27.4045 51.0168C26.8188 51.3642 26.1637 51.5947 25.4796 51.6942C23.39 51.6942 20.727 48.7647 18.9155 43.875C18.7014 43.2972 18.5046 42.714 18.325 42.1254C20.805 41.3719 23.2279 40.4608 25.5771 39.3984C27.9466 40.4291 30.3855 41.3121 32.8779 42.0417C32.7403 42.4899 32.5922 42.9345 32.4336 43.3755ZM33.4713 39.8007C31.7586 39.2969 30.0731 38.7148 28.4206 38.0565C29.3933 37.5759 30.3726 37.0674 31.3587 36.531C32.3715 35.9802 33.3576 35.4159 34.3169 34.8381C34.1253 36.5048 33.8431 38.1612 33.4713 39.8007ZM34.7526 26.9946C34.7526 28.6344 34.6981 30.2724 34.5892 31.9086C33.176 32.8104 31.6855 33.6906 30.1347 34.533C28.5868 35.3727 27.059 36.1449 25.557 36.8442C23.9766 36.1314 22.4268 35.3628 20.9076 34.5384C19.398 33.7194 17.9227 32.8473 16.4818 31.9221C16.3481 30.2841 16.2812 28.6443 16.2812 27.0027C16.2812 25.3629 16.3462 23.724 16.4761 22.086C19.3576 20.2329 22.3836 18.5875 25.5283 17.1639C27.0877 17.8785 28.6193 18.6444 30.1233 19.4616C31.6329 20.2788 33.1139 21.1419 34.5662 22.0509C34.6905 23.6961 34.7526 25.344 34.7526 26.9946ZM37.4929 13.2435C43.0022 12.2364 47.1528 12.9141 48.1933 14.6124C49.3026 16.4214 47.7146 20.412 43.7389 24.6186C43.5191 24.8508 43.2917 25.0839 43.0567 25.3179C41.1203 23.6691 39.067 22.1464 36.911 20.7603C36.6939 18.3545 36.306 15.965 35.7501 13.608C36.3425 13.4712 36.9234 13.3497 37.4929 13.2435ZM37.1202 23.733C38.5751 24.7332 39.9739 25.8038 41.311 26.9406C39.9801 28.0956 38.5861 29.1843 37.1346 30.2022C37.1785 29.133 37.2005 28.0638 37.2005 26.9946C37.2005 25.9074 37.1738 24.8202 37.1202 23.733ZM48.2105 39.3633C47.1671 41.067 43.1426 41.7771 37.7394 40.8159C37.1202 40.7061 36.4858 40.5747 35.8361 40.4217C36.3786 38.0342 36.7492 35.6149 36.9454 33.1803C39.0976 31.7709 41.1443 30.2238 43.071 28.5498C43.4092 28.8792 43.7303 29.2068 44.0341 29.5326C45.757 31.2972 47.1203 33.3456 48.0557 35.5752C48.3551 36.1631 48.5233 36.8026 48.55 37.4541C48.5766 38.1057 48.4611 38.7555 48.2105 39.3633Z" fill="#7A7A7A"/>
</svg>
