<svg width="28" height="28" viewBox="0 0 28 28" fill="none" xmlns="http://www.w3.org/2000/svg">
<path d="M13.0667 3.73333V0.933333C13.0667 0.685798 13.165 0.448401 13.34 0.273367C13.5151 0.098333 13.7525 0 14 0C14.2475 0 14.4849 0.098333 14.66 0.273367C14.835 0.448401 14.9333 0.685798 14.9333 0.933333V3.73333C14.9333 3.98087 14.835 4.21827 14.66 4.3933C14.4849 4.56833 14.2475 4.66667 14 4.66667C13.7525 4.66667 13.5151 4.56833 13.34 4.3933C13.165 4.21827 13.0667 3.98087 13.0667 3.73333ZM21.4667 14C21.4667 15.4768 21.0288 16.9204 20.2083 18.1483C19.3879 19.3761 18.2217 20.3332 16.8574 20.8983C15.493 21.4634 13.9917 21.6113 12.5433 21.3232C11.0949 21.0351 9.7645 20.324 8.72027 19.2797C7.67604 18.2355 6.96491 16.9051 6.6768 15.4567C6.3887 14.0083 6.53657 12.507 7.1017 11.1426C7.66683 9.77828 8.62386 8.61214 9.85174 7.79169C11.0796 6.97125 12.5232 6.53333 14 6.53333C15.9796 6.5355 17.8775 7.32285 19.2773 8.72266C20.6771 10.1225 21.4645 12.0204 21.4667 14ZM19.6 14C19.6 12.8924 19.2716 11.8097 18.6562 10.8888C18.0409 9.96789 17.1663 9.25013 16.143 8.82628C15.1198 8.40242 13.9938 8.29153 12.9075 8.5076C11.8212 8.72368 10.8234 9.25703 10.0402 10.0402C9.25703 10.8234 8.72368 11.8212 8.5076 12.9075C8.29153 13.9938 8.40242 15.1198 8.82628 16.143C9.25013 17.1663 9.96789 18.0409 10.8888 18.6562C11.8097 19.2716 12.8924 19.6 14 19.6C15.4847 19.5985 16.9082 19.008 17.9581 17.9581C19.008 16.9082 19.5985 15.4847 19.6 14ZM5.873 7.19367C6.04813 7.3688 6.28566 7.46719 6.53333 7.46719C6.78101 7.46719 7.01853 7.3688 7.19367 7.19367C7.3688 7.01853 7.46719 6.78101 7.46719 6.53333C7.46719 6.28566 7.3688 6.04813 7.19367 5.873L5.327 4.00633C5.15187 3.8312 4.91434 3.73281 4.66667 3.73281C4.41899 3.73281 4.18146 3.8312 4.00633 4.00633C3.8312 4.18146 3.73281 4.41899 3.73281 4.66667C3.73281 4.91434 3.8312 5.15187 4.00633 5.327L5.873 7.19367ZM5.873 20.8063L4.00633 22.673C3.8312 22.8481 3.73281 23.0857 3.73281 23.3333C3.73281 23.581 3.8312 23.8185 4.00633 23.9937C4.18146 24.1688 4.41899 24.2672 4.66667 24.2672C4.91434 24.2672 5.15187 24.1688 5.327 23.9937L7.19367 22.127C7.28038 22.0403 7.34917 21.9373 7.3961 21.824C7.44303 21.7107 7.46719 21.5893 7.46719 21.4667C7.46719 21.344 7.44303 21.2226 7.3961 21.1093C7.34917 20.996 7.28038 20.893 7.19367 20.8063C7.10695 20.7196 7.004 20.6508 6.8907 20.6039C6.7774 20.557 6.65597 20.5328 6.53333 20.5328C6.4107 20.5328 6.28926 20.557 6.17596 20.6039C6.06266 20.6508 5.95972 20.7196 5.873 20.8063ZM21.4667 7.46667C21.5893 7.46676 21.7107 7.4427 21.824 7.39586C21.9373 7.34902 22.0403 7.28031 22.127 7.19367L23.9937 5.327C24.1688 5.15187 24.2672 4.91434 24.2672 4.66667C24.2672 4.41899 24.1688 4.18146 23.9937 4.00633C23.8185 3.8312 23.581 3.73281 23.3333 3.73281C23.0857 3.73281 22.8481 3.8312 22.673 4.00633L20.8063 5.873C20.6757 6.00353 20.5866 6.1699 20.5506 6.35105C20.5145 6.53219 20.533 6.71997 20.6037 6.8906C20.6744 7.06124 20.7941 7.20706 20.9477 7.30961C21.1014 7.41215 21.282 7.46681 21.4667 7.46667ZM22.127 20.8063C21.9519 20.6312 21.7143 20.5328 21.4667 20.5328C21.219 20.5328 20.9815 20.6312 20.8063 20.8063C20.6312 20.9815 20.5328 21.219 20.5328 21.4667C20.5328 21.7143 20.6312 21.9519 20.8063 22.127L22.673 23.9937C22.7597 24.0804 22.8627 24.1492 22.976 24.1961C23.0893 24.243 23.2107 24.2672 23.3333 24.2672C23.456 24.2672 23.5774 24.243 23.6907 24.1961C23.804 24.1492 23.907 24.0804 23.9937 23.9937C24.0804 23.907 24.1492 23.804 24.1961 23.6907C24.243 23.5774 24.2672 23.456 24.2672 23.3333C24.2672 23.2107 24.243 23.0893 24.1961 22.976C24.1492 22.8627 24.0804 22.7597 23.9937 22.673L22.127 20.8063ZM4.66667 14C4.66667 13.7525 4.56833 13.5151 4.3933 13.34C4.21827 13.165 3.98087 13.0667 3.73333 13.0667H0.933333C0.685798 13.0667 0.448401 13.165 0.273367 13.34C0.098333 13.5151 0 13.7525 0 14C0 14.2475 0.098333 14.4849 0.273367 14.66C0.448401 14.835 0.685798 14.9333 0.933333 14.9333H3.73333C3.98087 14.9333 4.21827 14.835 4.3933 14.66C4.56833 14.4849 4.66667 14.2475 4.66667 14ZM14 23.3333C13.7525 23.3333 13.5151 23.4317 13.34 23.6067C13.165 23.7817 13.0667 24.0191 13.0667 24.2667V27.0667C13.0667 27.3142 13.165 27.5516 13.34 27.7266C13.5151 27.9017 13.7525 28 14 28C14.2475 28 14.4849 27.9017 14.66 27.7266C14.835 27.5516 14.9333 27.3142 14.9333 27.0667V24.2667C14.9333 24.0191 14.835 23.7817 14.66 23.6067C14.4849 23.4317 14.2475 23.3333 14 23.3333ZM27.0667 13.0667H24.2667C24.0191 13.0667 23.7817 13.165 23.6067 13.34C23.4317 13.5151 23.3333 13.7525 23.3333 14C23.3333 14.2475 23.4317 14.4849 23.6067 14.66C23.7817 14.835 24.0191 14.9333 24.2667 14.9333H27.0667C27.3142 14.9333 27.5516 14.835 27.7266 14.66C27.9017 14.4849 28 14.2475 28 14C28 13.7525 27.9017 13.5151 27.7266 13.34C27.5516 13.165 27.3142 13.0667 27.0667 13.0667Z" fill="#F9F9F9"/>
</svg>
