<svg width="28" height="28" viewBox="0 0 28 28" fill="none" xmlns="http://www.w3.org/2000/svg">
<path d="M23.9196 4.07407C22.6296 2.77757 21.0931 1.74961 19.3997 1.05015C17.7063 0.35069 15.8898 -0.00627214 14.0563 8.33972e-05C6.37387 8.33972e-05 0.112563 6.23006 0.112563 13.874C0.112563 16.324 0.759799 18.704 1.96985 20.804L0 28L7.38693 26.068C9.42714 27.174 11.7206 27.762 14.0563 27.762C21.7387 27.762 28 21.532 28 13.888C28 10.1781 26.5508 6.69206 23.9196 4.07407ZM14.0563 25.41C11.9739 25.41 9.93367 24.85 8.14673 23.8L7.72462 23.548L3.33467 24.696L4.50251 20.44L4.22111 20.006C3.06417 18.1678 2.44985 16.043 2.44824 13.874C2.44824 7.51806 7.65427 2.33808 14.0422 2.33808C17.1377 2.33808 20.0503 3.54207 22.2312 5.72607C23.311 6.79561 24.1668 8.06779 24.7489 9.46885C25.331 10.8699 25.6278 12.372 25.6221 13.888C25.6503 20.244 20.4442 25.41 14.0563 25.41ZM20.4161 16.786C20.0643 16.618 18.3477 15.778 18.0382 15.652C17.7146 15.54 17.4894 15.484 17.2503 15.82C17.0111 16.17 16.3497 16.954 16.1528 17.178C15.9558 17.416 15.7447 17.444 15.393 17.262C15.0412 17.094 13.9156 16.716 12.593 15.54C11.5518 14.616 10.8623 13.482 10.6513 13.132C10.4543 12.782 10.6231 12.6 10.806 12.418C10.9608 12.264 11.1578 12.012 11.3266 11.816C11.4955 11.62 11.5658 11.466 11.6784 11.242C11.791 11.004 11.7347 10.8081 11.6503 10.6401C11.5658 10.4721 10.8623 8.76406 10.5809 8.06406C10.2995 7.39206 10.004 7.47606 9.79296 7.46206H9.11759C8.87839 7.46206 8.51256 7.54606 8.18894 7.89606C7.8794 8.24606 6.97889 9.08606 6.97889 10.7941C6.97889 12.502 8.23116 14.154 8.4 14.378C8.56884 14.616 10.8623 18.116 14.3518 19.614C15.1819 19.978 15.8291 20.188 16.3357 20.342C17.1658 20.608 17.9256 20.566 18.5307 20.482C19.206 20.384 20.599 19.642 20.8804 18.83C21.1759 18.018 21.1759 17.332 21.0774 17.178C20.9789 17.024 20.7678 16.954 20.4161 16.786Z" fill="#7A7A7A"/>
</svg>
